<?xml version="1.0" encoding="utf-8"?>
<!-- Generator: Adobe Illustrator 15.0.0, SVG Export Plug-In . SVG Version: 6.00 Build 0)  -->

<svg version="1.1" id="Layer_1" xmlns="http://www.w3.org/2000/svg" xmlns:xlink="http://www.w3.org/1999/xlink" x="0px" y="0px"
	 width="25px" height="25px" viewBox="0 0 25 25" enable-background="new 0 0 25 25" xml:space="preserve">
<g>
	<g>
		<path opacity="0.35" d="M12.5,7.4c-1.8,0-3.3-1.5-3.3-3.3s1.5-3.3,3.3-3.3s3.3,1.5,3.3,3.3S14.3,7.4,12.5,7.4z M12.5,2.6
			c-0.8,0-1.5,0.7-1.5,1.5s0.7,1.5,1.5,1.5S14,5,14,4.2S13.3,2.6,12.5,2.6z"/>
		<circle fill="#FFFFFF" cx="12.5" cy="4.2" r="2.4"/>
	</g>
	<g>
		<path opacity="0.35" d="M12.5,15.8c-1.8,0-3.3-1.5-3.3-3.3c0-1.8,1.5-3.3,3.3-3.3s3.3,1.5,3.3,3.3C15.8,14.3,14.3,15.8,12.5,15.8z
			 M12.5,11c-0.8,0-1.5,0.7-1.5,1.5s0.7,1.5,1.5,1.5s1.5-0.7,1.5-1.5S13.3,11,12.5,11z"/>
		<circle fill="#FFFFFF" cx="12.5" cy="12.5" r="2.4"/>
	</g>
	<g>
		<path opacity="0.35" d="M12.5,24.1c-1.8,0-3.3-1.5-3.3-3.3c0-1.8,1.5-3.3,3.3-3.3s3.3,1.5,3.3,3.3C15.8,22.6,14.3,24.1,12.5,24.1z
			 M12.5,19.3c-0.8,0-1.5,0.7-1.5,1.5s0.7,1.5,1.5,1.5s1.5-0.7,1.5-1.5S13.3,19.3,12.5,19.3z"/>
		<circle fill="#FFFFFF" cx="12.5" cy="20.8" r="2.4"/>
	</g>
</g>
</svg>
